<svg width="19" height="19" viewBox="0 0 19 19" fill="none" xmlns="http://www.w3.org/2000/svg">
<path fill-rule="evenodd" clip-rule="evenodd" d="M17.0391 2.00245H15.8691C15.6625 1.41692 15.2793 0.909884 14.7725 0.55124C14.2656 0.192596 13.66 0 13.0391 0C12.4181 0 11.8125 0.192596 11.3057 0.55124C10.7988 0.909884 10.4157 1.41692 10.2091 2.00245H1.03906C0.773846 2.00245 0.519492 2.10781 0.331956 2.29534C0.144419 2.48288 0.0390625 2.73723 0.0390625 3.00245C0.0390625 3.26767 0.144419 3.52202 0.331956 3.70956C0.519492 3.89709 0.773846 4.00245 1.03906 4.00245H10.2091C10.4157 4.58798 10.7988 5.09502 11.3057 5.45366C11.8125 5.81231 12.4181 6.0049 13.0391 6.0049C13.66 6.0049 14.2656 5.81231 14.7725 5.45366C15.2793 5.09502 15.6625 4.58798 15.8691 4.00245H17.0391C17.3043 4.00245 17.5586 3.89709 17.7462 3.70956C17.9337 3.52202 18.0391 3.26767 18.0391 3.00245C18.0391 2.73723 17.9337 2.48288 17.7462 2.29534C17.5586 2.10781 17.3043 2.00245 17.0391 2.00245ZM13.0391 4.00245C13.3043 4.00245 13.5586 3.89709 13.7462 3.70956C13.9337 3.52202 14.0391 3.26767 14.0391 3.00245C14.0391 2.73723 13.9337 2.48288 13.7462 2.29534C13.5586 2.10781 13.3043 2.00245 13.0391 2.00245C12.7738 2.00245 12.5195 2.10781 12.332 2.29534C12.1444 2.48288 12.0391 2.73723 12.0391 3.00245C12.0391 3.26767 12.1444 3.52202 12.332 3.70956C12.5195 3.89709 12.7738 4.00245 13.0391 4.00245ZM0.0390625 9.00245C0.0390625 8.73723 0.144419 8.48288 0.331956 8.29534C0.519492 8.10781 0.773846 8.00245 1.03906 8.00245H2.20906C2.41566 7.41692 2.7988 6.90988 3.30566 6.55124C3.81252 6.1926 4.41815 6 5.03906 6C5.65998 6 6.2656 6.1926 6.77246 6.55124C7.27932 6.90988 7.66246 7.41692 7.86906 8.00245H17.0391C17.3043 8.00245 17.5586 8.10781 17.7462 8.29534C17.9337 8.48288 18.0391 8.73723 18.0391 9.00245C18.0391 9.26767 17.9337 9.52202 17.7462 9.70956C17.5586 9.89709 17.3043 10.0025 17.0391 10.0025H7.86906C7.66246 10.588 7.27932 11.095 6.77246 11.4537C6.2656 11.8123 5.65998 12.0049 5.03906 12.0049C4.41815 12.0049 3.81252 11.8123 3.30566 11.4537C2.7988 11.095 2.41566 10.588 2.20906 10.0025H1.03906C0.773846 10.0025 0.519492 9.89709 0.331956 9.70956C0.144419 9.52202 0.0390625 9.26767 0.0390625 9.00245ZM5.03906 10.0025C5.30428 10.0025 5.55863 9.89709 5.74617 9.70956C5.93371 9.52202 6.03906 9.26767 6.03906 9.00245C6.03906 8.73723 5.93371 8.48288 5.74617 8.29534C5.55863 8.10781 5.30428 8.00245 5.03906 8.00245C4.77385 8.00245 4.51949 8.10781 4.33196 8.29534C4.14442 8.48288 4.03906 8.73723 4.03906 9.00245C4.03906 9.26767 4.14442 9.52202 4.33196 9.70956C4.51949 9.89709 4.77385 10.0025 5.03906 10.0025ZM1.03906 14.0025C0.773846 14.0025 0.519492 14.1078 0.331956 14.2953C0.144419 14.4829 0.0390625 14.7372 0.0390625 15.0025C0.0390625 15.2677 0.144419 15.522 0.331956 15.7096C0.519492 15.8971 0.773846 16.0025 1.03906 16.0025H10.2091C10.4157 16.588 10.7988 17.095 11.3057 17.4537C11.8125 17.8123 12.4181 18.0049 13.0391 18.0049C13.66 18.0049 14.2656 17.8123 14.7725 17.4537C15.2793 17.095 15.6625 16.588 15.8691 16.0025H17.0391C17.3043 16.0025 17.5586 15.8971 17.7462 15.7096C17.9337 15.522 18.0391 15.2677 18.0391 15.0025C18.0391 14.7372 17.9337 14.4829 17.7462 14.2953C17.5586 14.1078 17.3043 14.0025 17.0391 14.0025H15.8691C15.6625 13.4169 15.2793 12.9099 14.7725 12.5512C14.2656 12.1926 13.66 12 13.0391 12C12.4181 12 11.8125 12.1926 11.3057 12.5512C10.7988 12.9099 10.4157 13.4169 10.2091 14.0025H1.03906ZM14.0391 15.0025C14.0391 15.2677 13.9337 15.522 13.7462 15.7096C13.5586 15.8971 13.3043 16.0025 13.0391 16.0025C12.7738 16.0025 12.5195 15.8971 12.332 15.7096C12.1444 15.522 12.0391 15.2677 12.0391 15.0025C12.0391 14.7372 12.1444 14.4829 12.332 14.2953C12.5195 14.1078 12.7738 14.0025 13.0391 14.0025C13.3043 14.0025 13.5586 14.1078 13.7462 14.2953C13.9337 14.4829 14.0391 14.7372 14.0391 15.0025Z" fill="#938C8C"/>
</svg>
